<mxfile host="app.diagrams.net" modified="2024-03-25T15:04:03.634Z" agent="Mozilla/5.0 (Windows NT 10.0; Win64; x64) AppleWebKit/537.36 (KHTML, like Gecko) Chrome/120.0.0.0 YaBrowser/24.1.0.0 Safari/537.36" version="24.0.7" etag="cO09zYTp7MmR9U1dQtTB" type="github">
  <diagram name="Страница — 1" id="ZYhygyyYh6TPLJBytn0l">
    <mxGraphModel>
      <root>
        <mxCell id="0" />
        <mxCell id="1" parent="0" />
      </root>
    </mxGraphModel>
  </diagram>
</mxfile>
